<?xml version="1.0" encoding="iso-8859-1"?>
<!-- Generator: Adobe Illustrator 19.0.0, SVG Export Plug-In . SVG Version: 6.00 Build 0)  -->
<svg version="1.1" id="Capa_1" xmlns="http://www.w3.org/2000/svg" xmlns:xlink="http://www.w3.org/1999/xlink" x="0px" y="0px"
	 viewBox="0 0 512 512" style="enable-background:new 0 0 512 512;" xml:space="preserve">
<g>
	<g>
		<path d="M477.867,51.2H34.133C15.309,51.2,0,66.509,0,85.333v307.2c0,18.825,15.309,34.133,34.133,34.133h443.733
			c18.825,0,34.133-15.309,34.133-34.133v-307.2C512,66.509,496.691,51.2,477.867,51.2z M494.933,392.533
			c0,9.412-7.654,17.067-17.067,17.067H34.133c-9.412,0-17.067-7.654-17.067-17.067v-307.2c0-9.412,7.654-17.067,17.067-17.067
			h443.733c9.412,0,17.067,7.654,17.067,17.067V392.533z"/>
	</g>
</g>
<g>
	<g>
		<path d="M494.933,401.067v25.6c0,9.412-7.654,17.067-17.067,17.067H34.133c-9.412,0-17.067-7.654-17.067-17.067v-25.6H0v25.6
			C0,445.491,15.309,460.8,34.133,460.8h443.733c18.825,0,34.133-15.309,34.133-34.133v-25.6H494.933z"/>
	</g>
</g>
<g>
	<g>
		<path d="M456.755,86.613c-2.509-1.553-5.641-1.698-8.303-0.375c-34.509,17.246-55.936,51.917-55.919,90.487V281.6
			c0,4.719,3.814,8.533,8.533,8.533h51.2c4.719,0,8.533-3.814,8.533-8.533V93.867C460.8,90.906,459.264,88.166,456.755,86.613z
			 M443.733,273.067H409.6v-96.35c-0.017-27.17,12.774-52.011,34.133-67.686V273.067z"/>
	</g>
</g>
<g>
	<g>
		<path d="M452.267,273.067h-34.133c-4.719,0-8.533,3.814-8.533,8.533l-0.205,83.652c-2.253,4.514-2.62,9.617-1.024,14.404
			c1.587,4.77,4.949,8.644,9.438,10.888c2.628,1.314,5.555,1.997,8.235,1.997c0.205,0,0.418,0,0.623-0.009l16.051-0.008
			c10.146-0.41,18.099-8.704,18.082-18.85V281.6C460.8,276.881,456.986,273.067,452.267,273.067z M443.733,373.692
			c0,0.956-0.751,1.741-1.365,1.775l-16.026,0.009c-0.299,0.009-0.606-0.034-0.887-0.188c-0.751-0.375-1.169-1.638-0.922-2.167
			c1.425-2.645,2.167-5.641,2.133-8.576v-74.411h17.067V373.692z"/>
	</g>
</g>
<g>
	<g>
		<path d="M73.011,151.031l25.6-8.533c31.735-10.573,64.794-15.94,98.253-15.949h50.603v-17.067h-50.603
			c-35.302,0.009-70.17,5.666-103.646,16.819l-25.626,8.542c-19.968,6.733-33.417,25.404-33.459,46.481
			c0,5.291,0.845,10.513,2.517,15.539c6.844,20.497,26.001,33.485,46.507,33.485c5.12,0,10.334-0.811,15.454-2.517
			c31.735-10.573,64.794-15.94,98.253-15.949h50.603v-17.067h-50.611c-35.302,0.009-70.17,5.666-103.646,16.819
			c-8.098,2.697-16.742,2.082-24.363-1.724c-7.629-3.806-13.312-10.359-16.009-18.449c-1.092-3.277-1.638-6.682-1.638-10.112
			C51.226,167.603,60.006,155.409,73.011,151.031z"/>
	</g>
</g>
<g>
	<g>
		<path d="M247.467,109.483c-28.237,0-51.2,22.963-51.2,51.2s22.963,51.2,51.2,51.2s51.2-22.963,51.2-51.2
			S275.703,109.483,247.467,109.483z M247.467,194.816c-18.825,0-34.133-15.309-34.133-34.133s15.309-34.133,34.133-34.133
			s34.133,15.309,34.133,34.133S266.291,194.816,247.467,194.816z"/>
	</g>
</g>
<g>
	<g>
		<rect x="85.333" y="162.133" width="17.067" height="17.067"/>
	</g>
</g>
<g>
	<g>
		<rect x="136.533" y="145.067" width="17.067" height="17.067"/>
	</g>
</g>
<g>
	<g>
		<rect x="162.133" y="170.667" width="17.067" height="17.067"/>
	</g>
</g>
<g>
	<g>
		<path d="M191.155,325.982c-7.287,5.47-16.29,7.757-25.301,6.485c-9.028-1.297-17.015-6.025-22.485-13.312
			c-11.29-15.061-8.226-36.497,6.827-47.795c12.058-9.037,28.902-9.037,40.96,0l10.24-13.653c-18.091-13.568-43.349-13.568-61.44,0
			c-22.588,16.939-27.179,49.092-10.24,71.671c8.201,10.94,20.181,18.031,33.715,19.968c2.458,0.35,4.907,0.529,7.347,0.529
			c11,0,21.658-3.533,30.618-10.24L191.155,325.982z"/>
	</g>
</g>
<g>
	<g>
		<path d="M114.654,332.467c-9.028-1.297-17.016-6.025-22.485-13.312c-11.29-15.061-8.226-36.497,6.827-47.795
			c12.058-9.037,28.902-9.037,40.96,0l10.24-13.653c-18.091-13.568-43.349-13.568-61.44,0
			c-22.588,16.939-27.179,49.092-10.24,71.671c8.201,10.94,20.181,18.031,33.715,19.968c2.458,0.35,4.907,0.529,7.347,0.529
			c11,0,21.658-3.533,30.618-10.24l-10.24-13.653C132.668,331.452,123.674,333.739,114.654,332.467z"/>
	</g>
</g>
<g>
	<g>
		<path d="M221.867,247.467c-28.237,0-51.2,22.963-51.2,51.2c0,28.237,22.963,51.2,51.2,51.2c28.237,0,51.2-22.963,51.2-51.2
			C273.067,270.43,250.103,247.467,221.867,247.467z M221.867,332.8c-18.825,0-34.133-15.309-34.133-34.133
			s15.309-34.133,34.133-34.133S256,279.842,256,298.667S240.691,332.8,221.867,332.8z"/>
	</g>
</g>
<g>
	<g>
		<path d="M307.2,247.467c-28.237,0-51.2,22.963-51.2,51.2c0,28.237,22.963,51.2,51.2,51.2c28.237,0,51.2-22.963,51.2-51.2
			C358.4,270.43,335.437,247.467,307.2,247.467z M307.2,332.8c-18.825,0-34.133-15.309-34.133-34.133s15.309-34.133,34.133-34.133
			s34.133,15.309,34.133,34.133S326.025,332.8,307.2,332.8z"/>
	</g>
</g>
<g>
</g>
<g>
</g>
<g>
</g>
<g>
</g>
<g>
</g>
<g>
</g>
<g>
</g>
<g>
</g>
<g>
</g>
<g>
</g>
<g>
</g>
<g>
</g>
<g>
</g>
<g>
</g>
<g>
</g>
</svg>
