<?xml version="1.0" encoding="iso-8859-1"?>
<!-- Generator: Adobe Illustrator 19.0.0, SVG Export Plug-In . SVG Version: 6.00 Build 0)  -->
<svg version="1.1" id="Capa_1" xmlns="http://www.w3.org/2000/svg" xmlns:xlink="http://www.w3.org/1999/xlink" x="0px" y="0px"
	 viewBox="0 0 512.004 512.004" style="enable-background:new 0 0 512.004 512.004;" xml:space="preserve">
<g>
	<g>
		<path d="M460.671,315.862H51.331c-4.707,0-8.528,3.812-8.528,8.528v34.112c0,84.64,68.863,153.503,153.503,153.503h119.391
			c84.64,0,153.503-68.863,153.503-153.503V324.39C469.199,319.674,465.387,315.862,460.671,315.862z M452.144,358.502
			c0,75.233-61.214,136.447-136.447,136.447H196.306c-75.233,0-136.447-61.214-136.447-136.447v-25.584h392.285V358.502z"/>
	</g>
</g>
<g>
	<g>
		<path d="M223.672,191.653l-17.056-17.056c-17.312-17.303-43.083-22.855-65.784-14.617L45.6,64.748
			c-10.378-10.378-27.264-10.378-37.651,0c-10.378,10.378-10.378,27.264,0,37.642l95.223,95.223
			c-8.229,22.693-2.695,48.464,14.617,65.785l17.056,17.056c12.246,12.238,28.321,18.361,44.405,18.361
			c16.084,0,32.167-6.115,44.422-18.352c11.862-11.862,18.395-27.631,18.395-44.405
			C242.066,219.283,235.534,203.515,223.672,191.653z M211.596,268.387c-17.84,17.84-46.852,17.84-64.693,0l-17.056-17.056
			c-13.67-13.67-17.252-34.589-8.912-52.037c1.561-3.258,0.895-7.146-1.663-9.705L20.008,90.324c-3.727-3.727-3.727-9.79,0-13.517
			c1.868-1.868,4.315-2.797,6.763-2.797c2.448,0,4.895,0.93,6.763,2.797l99.257,99.257c2.558,2.55,6.439,3.206,9.713,1.663
			c17.448-8.332,38.359-4.759,52.037,8.912l17.056,17.056c8.639,8.639,13.397,20.126,13.397,32.346S220.235,259.74,211.596,268.387z
			"/>
	</g>
</g>
<g>
	<g>
		
			<rect x="174.984" y="235.744" transform="matrix(0.7071 -0.7071 0.7071 0.7071 -134.2633 207.6404)" width="17.056" height="60.292"/>
	</g>
</g>
<g>
	<g>
		
			<rect x="200.568" y="210.155" transform="matrix(0.7071 -0.7071 0.7071 0.7071 -108.6757 218.2352)" width="17.056" height="60.292"/>
	</g>
</g>
<g>
	<g>
		<path d="M511.839,26.936c0-14.668-11.914-26.607-26.582-26.616c-0.009,0-0.017,0-0.026,0c-7.01,0-13.866,2.84-18.821,7.803
			l-93.202,93.193c-23.861-7.624-49.948-1.373-67.806,16.647l-17.056,17.056c-24.484,24.484-24.484,64.326,0,88.81
			c11.862,11.862,27.631,18.395,44.405,18.395s32.543-6.532,44.405-18.386l17.03-17.03c18.045-17.892,24.305-43.979,16.664-67.84
			l93.21-93.202C509.016,40.802,511.848,33.937,511.839,26.936z M494.783,26.961c0.009,2.507-1.015,4.972-2.789,6.746
			l-97.048,97.048c-2.448,2.448-3.172,6.123-1.842,9.313c7.846,18.821,3.556,40.26-10.95,54.647l-17.056,17.056
			c-17.84,17.832-46.852,17.832-64.693,0s-17.84-46.861,0-64.693l17.081-17.081c9.594-9.671,22.343-14.796,35.357-14.796
			c6.473,0,13.022,1.271,19.265,3.872c3.172,1.313,6.856,0.605,9.313-1.842l97.056-97.048c1.774-1.782,4.238-2.806,6.754-2.806
			h0.009c5.262,0,9.551,4.29,9.543,9.56C494.783,26.944,494.783,26.953,494.783,26.961z"/>
	</g>
</g>
<g>
	<g>
		<path d="M326.723,139.283l-17.081,17.081c-12.613,12.715-12.613,33.404,0,46.119l12.11-12.007
			c-6.038-6.097-6.038-16.015-0.026-22.079l17.03-17.03c6.106-6.055,16.015-6.038,22.104,0l12.007-12.11
			C360.161,126.653,339.464,126.644,326.723,139.283z"/>
	</g>
</g>
<g>
	<g>
		<path d="M221.889,51.496c0-11.223-7.266-20.783-17.099-24.211c0.171-2.584-0.06-5.194-0.691-7.777
			c-1.62-6.635-5.731-12.238-11.572-15.785c-5.85-3.548-12.715-4.605-19.358-2.976s-12.246,5.739-15.794,11.581
			c-2.797,4.622-4.017,9.867-3.658,15.035c-9.952,3.514-17.107,13.005-17.107,24.143c0,6.549,2.473,12.528,6.532,17.056
			c-4.059,4.528-6.532,10.506-6.532,17.056c0,12.809,9.466,23.452,21.763,25.302l14.847,14.839c1.663,1.663,3.846,2.499,6.029,2.499
			s4.366-0.836,6.029-2.507l14.847-14.839c12.297-1.851,21.763-12.493,21.763-25.302c0-6.549-2.473-12.528-6.532-17.056
			C219.416,64.024,221.889,58.045,221.889,51.496z M196.306,77.088c4.699,0,8.528,3.829,8.528,8.528
			c0,4.699-3.829,8.528-8.528,8.528c-2.26,0-4.426,0.895-6.029,2.499L179.25,107.67l-11.027-11.027
			c-1.595-1.603-3.769-2.499-6.029-2.499c-4.699,0-8.528-3.829-8.528-8.528c0-4.699,3.829-8.528,8.528-8.528
			c4.716,0,8.519-3.812,8.519-8.519s-3.82-8.528-8.528-8.528c-4.699,0-8.528-3.829-8.528-8.528s3.829-8.528,9.005-8.536
			c0.512-0.034,1.015-0.034,1.526,0c3.181,0.171,6.157-1.416,7.786-4.128c1.629-2.712,1.62-6.106-0.017-8.809
			c-1.654-2.729-1.654-6.123,0-8.852c1.177-1.953,3.044-3.326,5.262-3.863c2.2-0.554,4.494-0.188,6.447,0.998
			c1.953,1.177,3.317,3.053,3.863,5.262c0.546,2.209,0.196,4.494-0.989,6.447c-1.637,2.703-1.646,6.097-0.017,8.809
			c1.62,2.703,4.588,4.272,7.786,4.128c0.503-0.034,1.015-0.026,1.996,0.009c4.699,0,8.528,3.829,8.528,8.528
			c0,4.699-3.829,8.528-8.528,8.528c-4.707,0-8.528,3.82-8.528,8.528C187.778,73.268,191.598,77.088,196.306,77.088z"/>
	</g>
</g>
<g>
	<g>
		<rect x="170.73" y="119.737" width="17.056" height="25.584"/>
	</g>
</g>
<g>
	<g>
		<path d="M256.001,85.616c-14.105,0-25.584,11.479-25.584,25.584c0,14.105,11.479,25.584,25.584,25.584
			c14.105,0,25.584-11.479,25.584-25.584C281.585,97.095,270.106,85.616,256.001,85.616z M256.001,119.728
			c-4.699,0-8.528-3.829-8.528-8.528c0-4.699,3.829-8.528,8.528-8.528c4.707,0,8.528,3.829,8.528,8.528
			C264.529,115.899,260.7,119.728,256.001,119.728z"/>
	</g>
</g>
<g>
	<g>
		<path d="M451.043,274.322c-3.189-10.498-12.962-18.156-24.484-18.156s-21.294,7.667-24.484,18.156
			c-10.498,3.189-18.156,12.954-18.156,24.484h17.056c0-4.707,3.821-8.528,8.528-8.528c4.716,0,8.528-3.812,8.528-8.528
			c0-4.707,3.821-8.528,8.528-8.528s8.528,3.82,8.528,8.528c0,4.716,3.812,8.528,8.528,8.528c4.707,0,8.528,3.821,8.528,8.528
			h17.056C469.199,287.285,461.541,277.512,451.043,274.322z"/>
	</g>
</g>
<g>
	<g>
		<path d="M119.554,34.449V17.393c-18.813,0-34.112,15.299-34.112,34.112s15.299,34.112,34.112,34.112V68.56
			c-9.406,0-17.056-7.65-17.056-17.056S110.148,34.449,119.554,34.449z"/>
	</g>
</g>
<g>
	<g>
		<path d="M435.088,179.424c-14.105,0-25.584,11.479-25.584,25.584c0,14.105,11.479,25.584,25.584,25.584
			c14.105,0,25.584-11.479,25.584-25.584C460.671,190.902,449.193,179.424,435.088,179.424z M435.088,213.535
			c-4.707,0-8.528-3.829-8.528-8.528c0-4.699,3.821-8.528,8.528-8.528s8.528,3.829,8.528,8.528
			C443.616,209.706,439.795,213.535,435.088,213.535z"/>
	</g>
</g>
<g>
	<g>
		<path d="M332.752,298.806h17.056c0-9.398,7.65-17.056,17.056-17.056v-17.056C348.052,264.694,332.752,279.993,332.752,298.806z"/>
	</g>
</g>
<g>
	<g>
		<path d="M341.28,17.393c-18.813,0-34.112,15.299-34.112,34.112s15.299,34.112,34.112,34.112c18.813,0,34.112-15.299,34.112-34.112
			S360.093,17.393,341.28,17.393z M341.28,68.56c-9.406,0-17.056-7.65-17.056-17.056s7.65-17.056,17.056-17.056
			c9.398,0,17.056,7.65,17.056,17.056S350.687,68.56,341.28,68.56z"/>
	</g>
</g>
<g>
	<g>
		<path d="M81.179,247.638c-2.354,0-4.264-1.919-4.264-4.264c0-11.751-9.568-21.32-21.32-21.32h-21.32
			c-4.707,0-8.528,3.82-8.528,8.528v21.32c0,11.76,9.568,21.32,21.32,21.32c2.354,0,4.264,1.919,4.264,4.264
			c0,11.76,9.568,21.32,21.32,21.32h21.32c4.716,0,8.528-3.812,8.528-8.528v-21.32C102.498,257.198,92.93,247.638,81.179,247.638z
			 M85.442,281.759H72.651c-2.354,0-4.264-1.919-4.264-4.264c0-11.76-9.568-21.32-21.32-21.32c-2.354,0-4.264-1.919-4.264-4.264
			v-12.792h12.792c2.354,0,4.264,1.91,4.264,4.264c0,11.76,9.568,21.32,21.32,21.32c2.354,0,4.264,1.919,4.264,4.264V281.759z"/>
	</g>
</g>
<g>
	<g>
		<rect x="51.339" y="179.432" width="17.056" height="17.056"/>
	</g>
</g>
<g>
	<g>
		<rect x="264.538" y="34.457" width="17.056" height="17.056"/>
	</g>
</g>
<g>
	<g>
		<rect x="443.624" y="136.792" width="17.056" height="17.056"/>
	</g>
</g>
<g>
	<g>
		<rect x="230.426" y="153.848" width="17.056" height="17.056"/>
	</g>
</g>
<g>
	<g>
		<path d="M290.113,247.638c-14.105,0-25.584,11.479-25.584,25.584c0,14.105,11.479,25.584,25.584,25.584
			c14.105,0,25.584-11.47,25.584-25.584C315.697,259.117,304.218,247.638,290.113,247.638z M290.113,281.75
			c-4.707,0-8.528-3.82-8.528-8.528c0-4.707,3.821-8.528,8.528-8.528s8.528,3.829,8.528,8.528
			C298.641,277.93,294.82,281.75,290.113,281.75z"/>
	</g>
</g>
<g>
	<g>
		<path d="M392.448,324.39v76.751c0,4.707-3.821,8.528-8.528,8.528s-8.528-3.82-8.528-8.528v-25.584
			c0-14.105-11.479-25.584-25.584-25.584c-14.105,0-25.584,11.479-25.584,25.584c0,4.707-3.82,8.528-8.528,8.528
			s-8.528-3.82-8.528-8.528V324.39h-17.056v51.168c0,14.105,11.479,25.584,25.584,25.584c14.105,0,25.584-11.479,25.584-25.584
			c0-4.707,3.82-8.528,8.528-8.528s8.528,3.821,8.528,8.528v25.584c0,14.105,11.479,25.584,25.584,25.584
			c14.105,0,25.584-11.47,25.584-25.584V324.39H392.448z"/>
	</g>
</g>
<g>
</g>
<g>
</g>
<g>
</g>
<g>
</g>
<g>
</g>
<g>
</g>
<g>
</g>
<g>
</g>
<g>
</g>
<g>
</g>
<g>
</g>
<g>
</g>
<g>
</g>
<g>
</g>
<g>
</g>
</svg>
